<svg width="36" height="36" viewBox="0 0 36 36" fill="none" xmlns="http://www.w3.org/2000/svg">
    <path d="M6 28.5V15C6 14.525 6.1065 14.075 6.3195 13.65C6.5325 13.225 6.826 12.875 7.2 12.6L16.2 5.85C16.725 5.45 17.325 5.25 18 5.25C18.675 5.25 19.275 5.45 19.8 5.85L28.8 12.6C29.175 12.875 29.469 13.225 29.682 13.65C29.895 14.075 30.001 14.525 30 15V28.5C30 29.325 29.706 30.0315 29.118 30.6195C28.53 31.2075 27.824 31.501 27 31.5H22.5C22.075 31.5 21.719 31.356 21.432 31.068C21.145 30.78 21.001 30.424 21 30V22.5C21 22.075 20.856 21.719 20.568 21.432C20.28 21.145 19.924 21.001 19.5 21H16.5C16.075 21 15.719 21.144 15.432 21.432C15.145 21.72 15.001 22.076 15 22.5V30C15 30.425 14.856 30.7815 14.568 31.0695C14.28 31.3575 13.924 31.501 13.5 31.5H9C8.175 31.5 7.469 31.2065 6.882 30.6195C6.295 30.0325 6.001 29.326 6 28.5Z" fill="black"/>
</svg>
