<svg width="94" height="28" viewBox="0 0 94 28" fill="none" xmlns="http://www.w3.org/2000/svg">
    <path d="M42.1968 13.438H40.3248V11.89H36.7788C36.3588 12.322 35.8308 12.658 35.1948 12.898C34.5708 13.126 33.8688 13.24 33.0888 13.24C32.4048 13.24 31.7748 13.15 31.1988 12.97C30.6228 12.778 30.1248 12.514 29.7048 12.178C29.2968 11.83 28.9728 11.422 28.7328 10.954C28.5048 10.474 28.3908 9.94 28.3908 9.352C28.3908 8.764 28.5048 8.236 28.7328 7.768C28.9728 7.288 29.2968 6.88 29.7048 6.544C30.1248 6.196 30.6228 5.932 31.1988 5.752C31.7748 5.56 32.4048 5.464 33.0888 5.464C33.8808 5.464 34.5948 5.59 35.2308 5.842C35.8668 6.082 36.3948 6.418 36.8148 6.85H40.3248V5.608H42.1968V13.438ZM42.5568 21.394H30.1368V16.948H40.3248V15.796H30.1188V14.14H42.1968V18.568H32.0088V19.738H42.5568V21.394ZM35.1408 11.098C35.6568 10.69 35.9148 10.108 35.9148 9.352C35.9148 8.608 35.6568 8.032 35.1408 7.624C34.6368 7.216 33.9528 7.012 33.0888 7.012C32.2248 7.012 31.5348 7.216 31.0188 7.624C30.5148 8.032 30.2628 8.608 30.2628 9.352C30.2628 10.108 30.5148 10.69 31.0188 11.098C31.5348 11.494 32.2248 11.692 33.0888 11.692C33.9528 11.692 34.6368 11.494 35.1408 11.098ZM40.3248 10.252V8.488H37.6788C37.7508 8.764 37.7868 9.052 37.7868 9.352C37.7868 9.664 37.7508 9.964 37.6788 10.252H40.3248ZM50.1514 21.322C49.5874 21.322 49.0654 21.244 48.5854 21.088C48.1174 20.944 47.7094 20.728 47.3614 20.44C47.0254 20.164 46.7614 19.828 46.5694 19.432C46.3774 19.036 46.2814 18.592 46.2814 18.1C46.2814 17.608 46.3774 17.164 46.5694 16.768C46.7614 16.372 47.0254 16.036 47.3614 15.76C47.7094 15.472 48.1174 15.256 48.5854 15.112C49.0654 14.956 49.5874 14.878 50.1514 14.878H55.2994C55.8634 14.878 56.3794 14.956 56.8474 15.112C57.3274 15.256 57.7354 15.472 58.0714 15.76C58.4194 16.036 58.6894 16.372 58.8814 16.768C59.0734 17.164 59.1694 17.608 59.1694 18.1C59.1694 18.592 59.0734 19.036 58.8814 19.432C58.6894 19.828 58.4194 20.164 58.0714 20.44C57.7354 20.728 57.3274 20.944 56.8474 21.088C56.3794 21.244 55.8634 21.322 55.2994 21.322H50.1514ZM54.0574 14.032C53.3494 13.564 52.6534 13.066 51.9694 12.538C51.2974 11.998 50.6374 11.452 49.9894 10.9C49.6774 11.152 49.3414 11.428 48.9814 11.728C48.6214 12.016 48.2494 12.31 47.8654 12.61C47.4934 12.91 47.1154 13.204 46.7314 13.492C46.3474 13.78 45.9814 14.044 45.6334 14.284L44.4814 12.934C45.2374 12.406 45.9514 11.89 46.6234 11.386C47.3074 10.87 47.9554 10.33 48.5674 9.766C48.7714 9.586 48.8974 9.406 48.9454 9.226C48.9934 9.046 49.0174 8.836 49.0174 8.596V7.678H45.3274V6.022H54.5254V7.678H50.9254V8.65C50.9254 8.89 50.9494 9.094 50.9974 9.262C51.0454 9.43 51.1714 9.61 51.3754 9.802C51.9874 10.366 52.5814 10.87 53.1574 11.314C53.7454 11.746 54.4114 12.214 55.1554 12.718L54.0574 14.032ZM55.1914 19.666C55.8154 19.666 56.3194 19.534 56.7034 19.27C57.0994 19.006 57.2974 18.616 57.2974 18.1C57.2974 17.584 57.0994 17.194 56.7034 16.93C56.3194 16.666 55.8154 16.534 55.1914 16.534H50.2594C49.6354 16.534 49.1254 16.666 48.7294 16.93C48.3454 17.194 48.1534 17.584 48.1534 18.1C48.1534 18.616 48.3454 19.006 48.7294 19.27C49.1254 19.534 49.6354 19.666 50.2594 19.666H55.1914ZM58.7554 14.374H56.8834V10.432H53.5534V8.812H56.8834V5.608H58.7554V14.374ZM69.482 18.55H61.364V16.894H62.534V8.056H61.508V6.4H69.23V8.056H68.204V16.894H69.482V18.55ZM72.668 20.89H70.814V13.078H68.906V11.386H70.814V5.788H72.668V20.89ZM76.07 21.34H74.198V5.608H76.07V21.34ZM66.35 16.894V8.056H64.388V16.894H66.35ZM87.6246 14.752C87.6246 15.4 87.5106 15.994 87.2826 16.534C87.0546 17.074 86.7366 17.542 86.3286 17.938C85.9326 18.322 85.4526 18.622 84.8886 18.838C84.3246 19.054 83.7066 19.162 83.0346 19.162C82.3626 19.162 81.7446 19.054 81.1806 18.838C80.6166 18.622 80.1306 18.322 79.7226 17.938C79.3146 17.542 78.9966 17.074 78.7686 16.534C78.5526 15.994 78.4446 15.4 78.4446 14.752V10.36C78.4446 9.712 78.5526 9.118 78.7686 8.578C78.9966 8.038 79.3146 7.576 79.7226 7.192C80.1306 6.796 80.6166 6.49 81.1806 6.274C81.7446 6.058 82.3626 5.95 83.0346 5.95C83.7066 5.95 84.3246 6.058 84.8886 6.274C85.4526 6.49 85.9326 6.796 86.3286 7.192C86.7366 7.576 87.0546 8.038 87.2826 8.578C87.5106 9.118 87.6246 9.712 87.6246 10.36V14.752ZM85.7526 10.396C85.7526 9.568 85.5066 8.896 85.0146 8.38C84.5346 7.864 83.8746 7.606 83.0346 7.606C82.1946 7.606 81.5286 7.864 81.0366 8.38C80.5566 8.896 80.3166 9.568 80.3166 10.396V14.716C80.3166 15.544 80.5566 16.216 81.0366 16.732C81.5286 17.248 82.1946 17.506 83.0346 17.506C83.8746 17.506 84.5346 17.248 85.0146 16.732C85.5066 16.216 85.7526 15.544 85.7526 14.716V10.396ZM91.9986 21.358H90.1266V5.608H91.9986V21.358Z" fill="url(#paint0_linear_580_197)"/>
    <path d="M16.1798 3.18098C17.4046 5.00754 17.5465 7.15717 16.8047 8.96236L19.6281 7.01325L21.6832 11.5059C23.9149 16.3853 21.7291 21.9767 16.7833 24.055L16.7844 24.0576C15.3133 24.6718 13.7616 24.8998 12.2471 24.7946C13.2064 24.3348 13.9903 23.538 14.3951 22.4879C15.262 20.2385 14.0623 17.6815 11.7157 16.7772C9.3691 15.873 6.76372 16.9636 5.89688 19.2129C5.55118 20.1102 5.53522 21.0562 5.78874 21.9269C4.94035 21.1068 4.22447 20.1305 3.69995 19.0152L3.70247 19.0141C1.48116 14.2746 3.49681 8.81546 8.20697 6.6464L8.20529 6.64261L16.1798 3.18098Z" fill="url(#paint1_linear_580_197)"/>
    <defs>
        <linearGradient id="paint0_linear_580_197" x1="113.891" y1="5.02941" x2="31.3969" y2="22.2667" gradientUnits="userSpaceOnUse">
            <stop stop-color="#122853"/>
            <stop offset="1" stop-color="#164ABC"/>
        </linearGradient>
        <linearGradient id="paint1_linear_580_197" x1="9.12733" y1="18.4732" x2="21.6989" y2="4.65598" gradientUnits="userSpaceOnUse">
            <stop stop-color="#004BBC"/>
            <stop offset="1" stop-color="#FFADD5"/>
        </linearGradient>
    </defs>
</svg>
