<svg width="93" height="114" viewBox="0 0 93 114" fill="none" xmlns="http://www.w3.org/2000/svg">
    <path d="M20.5621 101.966H17.8581V99.73H12.7361C12.1294 100.354 11.3667 100.839 10.4481 101.186C9.54673 101.515 8.53273 101.68 7.40606 101.68C6.41806 101.68 5.50806 101.55 4.67606 101.29C3.84406 101.013 3.12473 100.631 2.51806 100.146C1.92873 99.6433 1.46073 99.054 1.11406 98.378C0.784729 97.6847 0.620063 96.9133 0.620063 96.064C0.620063 95.2147 0.784729 94.452 1.11406 93.776C1.46073 93.0827 1.92873 92.4933 2.51806 92.008C3.12473 91.5053 3.84406 91.124 4.67606 90.864C5.50806 90.5867 6.41806 90.448 7.40606 90.448C8.55006 90.448 9.5814 90.63 10.5001 90.994C11.4187 91.3407 12.1814 91.826 12.7881 92.45H17.8581V90.656H20.5621V101.966ZM21.0821 113.458H3.14206V107.036H17.8581V105.372H3.11606V102.98H20.5621V109.376H5.84606V111.066H21.0821V113.458ZM10.3701 98.586C11.1154 97.9967 11.4881 97.156 11.4881 96.064C11.4881 94.9893 11.1154 94.1573 10.3701 93.568C9.64206 92.9787 8.65406 92.684 7.40606 92.684C6.15806 92.684 5.1614 92.9787 4.41606 93.568C3.68806 94.1573 3.32406 94.9893 3.32406 96.064C3.32406 97.156 3.68806 97.9967 4.41606 98.586C5.1614 99.158 6.15806 99.444 7.40606 99.444C8.65406 99.444 9.64206 99.158 10.3701 98.586ZM17.8581 97.364V94.816H14.0361C14.1401 95.2147 14.1921 95.6307 14.1921 96.064C14.1921 96.5147 14.1401 96.948 14.0361 97.364H17.8581ZM32.052 113.354C31.2374 113.354 30.4834 113.241 29.79 113.016C29.114 112.808 28.5247 112.496 28.022 112.08C27.5367 111.681 27.1554 111.196 26.878 110.624C26.6007 110.052 26.462 109.411 26.462 108.7C26.462 107.989 26.6007 107.348 26.878 106.776C27.1554 106.204 27.5367 105.719 28.022 105.32C28.5247 104.904 29.114 104.592 29.79 104.384C30.4834 104.159 31.2374 104.046 32.052 104.046H39.488C40.3027 104.046 41.048 104.159 41.724 104.384C42.4174 104.592 43.0067 104.904 43.492 105.32C43.9947 105.719 44.3847 106.204 44.662 106.776C44.9394 107.348 45.078 107.989 45.078 108.7C45.078 109.411 44.9394 110.052 44.662 110.624C44.3847 111.196 43.9947 111.681 43.492 112.08C43.0067 112.496 42.4174 112.808 41.724 113.016C41.048 113.241 40.3027 113.354 39.488 113.354H32.052ZM37.694 102.824C36.6714 102.148 35.666 101.429 34.678 100.666C33.7074 99.886 32.754 99.0973 31.818 98.3C31.3674 98.664 30.882 99.0627 30.362 99.496C29.842 99.912 29.3047 100.337 28.75 100.77C28.2127 101.203 27.6667 101.628 27.112 102.044C26.5574 102.46 26.0287 102.841 25.526 103.188L23.862 101.238C24.954 100.475 25.9854 99.73 26.956 99.002C27.944 98.2567 28.88 97.4767 29.764 96.662C30.0587 96.402 30.2407 96.142 30.31 95.882C30.3794 95.622 30.414 95.3187 30.414 94.972V93.646H25.084V91.254H38.37V93.646H33.17V95.05C33.17 95.3967 33.2047 95.6913 33.274 95.934C33.3434 96.1767 33.5254 96.4367 33.82 96.714C34.704 97.5287 35.562 98.2567 36.394 98.898C37.2434 99.522 38.2054 100.198 39.28 100.926L37.694 102.824ZM39.332 110.962C40.2334 110.962 40.9614 110.771 41.516 110.39C42.088 110.009 42.374 109.445 42.374 108.7C42.374 107.955 42.088 107.391 41.516 107.01C40.9614 106.629 40.2334 106.438 39.332 106.438H32.208C31.3067 106.438 30.57 106.629 29.998 107.01C29.4434 107.391 29.166 107.955 29.166 108.7C29.166 109.445 29.4434 110.009 29.998 110.39C30.57 110.771 31.3067 110.962 32.208 110.962H39.332ZM44.48 103.318H41.776V97.624H36.966V95.284H41.776V90.656H44.48V103.318ZM59.974 109.35H48.248V106.958H49.938V94.192H48.456V91.8H59.61V94.192H58.128V106.958H59.974V109.35ZM64.576 112.73H61.898V101.446H59.142V99.002H61.898V90.916H64.576V112.73ZM69.49 113.38H66.786V90.656H69.49V113.38ZM55.45 106.958V94.192H52.616V106.958H55.45ZM86.18 103.864C86.18 104.8 86.0153 105.658 85.686 106.438C85.3566 107.218 84.8973 107.894 84.308 108.466C83.736 109.021 83.0426 109.454 82.228 109.766C81.4133 110.078 80.5206 110.234 79.55 110.234C78.5793 110.234 77.6866 110.078 76.872 109.766C76.0573 109.454 75.3553 109.021 74.766 108.466C74.1766 107.894 73.7173 107.218 73.388 106.438C73.076 105.658 72.92 104.8 72.92 103.864V97.52C72.92 96.584 73.076 95.726 73.388 94.946C73.7173 94.166 74.1766 93.4987 74.766 92.944C75.3553 92.372 76.0573 91.93 76.872 91.618C77.6866 91.306 78.5793 91.15 79.55 91.15C80.5206 91.15 81.4133 91.306 82.228 91.618C83.0426 91.93 83.736 92.372 84.308 92.944C84.8973 93.4987 85.3566 94.166 85.686 94.946C86.0153 95.726 86.18 96.584 86.18 97.52V103.864ZM83.476 97.572C83.476 96.376 83.1206 95.4053 82.41 94.66C81.7166 93.9147 80.7633 93.542 79.55 93.542C78.3366 93.542 77.3746 93.9147 76.664 94.66C75.9706 95.4053 75.624 96.376 75.624 97.572V103.812C75.624 105.008 75.9706 105.979 76.664 106.724C77.3746 107.469 78.3366 107.842 79.55 107.842C80.7633 107.842 81.7166 107.469 82.41 106.724C83.1206 105.979 83.476 105.008 83.476 103.812V97.572ZM92.498 113.406H89.794V90.656H92.498V113.406Z" fill="url(#paint0_linear_178_1840)"/>
    <path d="M56.8736 0.126996C61.1628 6.49269 61.6729 13.9778 59.0951 20.2598L68.9351 13.4972L76.143 29.1582C83.9705 46.1666 76.3636 65.6338 59.0888 72.8475L59.091 72.8525C53.9427 74.9882 48.5089 75.7842 43.2054 75.4046C46.5633 73.8091 49.3053 71.0337 50.7165 67.3719C53.7341 59.5411 49.5267 50.6288 41.3192 47.4659C33.1118 44.3032 24.0124 48.0874 20.9946 55.918C19.792 59.0385 19.7375 62.3306 20.6255 65.3623C17.6623 62.504 15.166 59.0989 13.3295 55.2173L13.3374 55.2131C5.54675 38.6889 12.5645 19.6756 29.0227 12.1486L29.019 12.1419L56.8736 0.126996Z" fill="url(#paint1_linear_178_1840)"/>
    <defs>
        <linearGradient id="paint0_linear_178_1840" x1="141.5" y1="71.9258" x2="4.99999" y2="113" gradientUnits="userSpaceOnUse">
            <stop stop-color="#FFA4A6"/>
            <stop offset="0.764423" stop-color="#122853"/>
        </linearGradient>
        <linearGradient id="paint1_linear_178_1840" x1="32.2906" y1="53.3716" x2="76.0244" y2="5.16341" gradientUnits="userSpaceOnUse">
            <stop stop-color="#004BBC"/>
            <stop offset="1" stop-color="#FFA4A6"/>
        </linearGradient>
    </defs>
</svg>
