<svg width="20" height="20" viewBox="0 0 20 20" fill="none" xmlns="http://www.w3.org/2000/svg">
    <path d="M10.2457 7.51211C9.73277 7.46145 9.21671 7.57057 8.76819 7.82454C8.31967 8.07851 7.96061 8.4649 7.74017 8.93082C7.51973 9.39673 7.44869 9.91939 7.53678 10.4272C7.62486 10.9351 7.86777 11.4033 8.23223 11.7678C8.5967 12.1322 9.06491 12.3751 9.57276 12.4632C10.0806 12.5513 10.6033 12.4803 11.0692 12.2598C11.5351 12.0394 11.9215 11.6803 12.1755 11.2318C12.4294 10.7833 12.5386 10.2672 12.4879 9.7543C12.4301 9.17929 12.1754 8.64193 11.7667 8.23329C11.3581 7.82465 10.8207 7.56986 10.2457 7.51211ZM16.2652 10C16.2637 10.2717 16.2437 10.5431 16.2055 10.8121L17.9715 12.1973C18.0484 12.261 18.1002 12.35 18.1177 12.4483C18.1352 12.5466 18.1173 12.648 18.0672 12.7344L16.3965 15.625C16.3458 15.7106 16.2664 15.7754 16.1725 15.8082C16.0786 15.841 15.9762 15.8396 15.8832 15.8043L14.1293 15.098C14.0326 15.0595 13.9278 15.0456 13.8244 15.0576C13.721 15.0695 13.6221 15.1069 13.5367 15.1664C13.269 15.3507 12.9878 15.5145 12.6953 15.6562C12.6034 15.7009 12.5238 15.7676 12.4638 15.8503C12.4037 15.933 12.3649 16.0292 12.3508 16.1305L12.0879 18.0012C12.0706 18.1 12.0196 18.1897 11.9435 18.255C11.8674 18.3204 11.771 18.3573 11.6707 18.3594H8.3293C8.23069 18.3577 8.13559 18.3224 8.05969 18.2594C7.98378 18.1965 7.9316 18.1095 7.91172 18.0129L7.64922 16.1449C7.63448 16.0426 7.59468 15.9454 7.53334 15.8621C7.47201 15.7789 7.39105 15.712 7.29766 15.6676C7.00553 15.5266 6.7252 15.3624 6.45938 15.1766C6.37426 15.1173 6.27574 15.0802 6.17271 15.0686C6.06967 15.0569 5.96535 15.0711 5.86915 15.1098L4.11563 15.8156C4.0227 15.851 3.92027 15.8525 3.82638 15.8197C3.73248 15.787 3.65315 15.7222 3.60235 15.6367L1.93165 12.7461C1.88142 12.6597 1.86347 12.5583 1.88099 12.46C1.89852 12.3616 1.95038 12.2727 2.02735 12.209L3.51993 11.0371C3.6017 10.9722 3.66597 10.8879 3.7069 10.7918C3.74782 10.6958 3.76412 10.5911 3.7543 10.4871C3.74024 10.3242 3.73165 10.1617 3.73165 9.99883C3.73165 9.83594 3.73985 9.67578 3.7543 9.51641C3.76305 9.4131 3.74595 9.30924 3.70456 9.21418C3.66317 9.11912 3.59878 9.03585 3.51719 8.97187L2.0254 7.8C1.94968 7.73597 1.89891 7.64734 1.88198 7.54964C1.86505 7.45194 1.88305 7.35139 1.93282 7.26562L3.60352 4.375C3.65426 4.28945 3.73357 4.22455 3.82747 4.19175C3.92137 4.15895 4.02383 4.16035 4.1168 4.1957L5.87071 4.90195C5.96743 4.94046 6.07219 4.95438 6.17561 4.94245C6.27903 4.93052 6.37788 4.89311 6.46329 4.83359C6.73096 4.64927 7.01224 4.48552 7.30469 4.34375C7.39664 4.29906 7.47616 4.23242 7.53625 4.14972C7.59634 4.06701 7.63514 3.97078 7.64922 3.86953L7.91212 1.99883C7.92938 1.90003 7.98042 1.8103 8.05652 1.74496C8.13261 1.67963 8.22903 1.64275 8.3293 1.64062H11.6707C11.7693 1.64233 11.8644 1.67758 11.9403 1.74056C12.0162 1.80354 12.0684 1.8905 12.0883 1.98711L12.3508 3.85508C12.3655 3.95745 12.4053 4.05459 12.4667 4.13787C12.528 4.22114 12.609 4.28798 12.7023 4.33242C12.9945 4.47338 13.2748 4.63758 13.5406 4.82344C13.6258 4.88266 13.7243 4.91978 13.8273 4.93144C13.9303 4.9431 14.0347 4.92894 14.1309 4.89023L15.8844 4.18438C15.9773 4.14899 16.0797 4.14753 16.1736 4.18026C16.2675 4.21299 16.3469 4.2778 16.3977 4.36328L18.0684 7.25391C18.1186 7.34027 18.1365 7.44165 18.119 7.54001C18.1015 7.63837 18.0496 7.72732 17.9727 7.79102L16.4801 8.96289C16.398 9.02759 16.3333 9.1118 16.292 9.20786C16.2508 9.30392 16.2342 9.40878 16.2438 9.51289C16.2566 9.67461 16.2652 9.83711 16.2652 10Z" stroke="#7D7D7D" stroke-linecap="round" stroke-linejoin="round"/>
</svg>
