<svg width="112" height="112" viewBox="0 0 112 112" fill="none" xmlns="http://www.w3.org/2000/svg">
    <g filter="url(#filter0_d_636_33)">
        <path d="M56 84C75.8823 84 92 67.8823 92 48C92 28.1177 75.8823 12 56 12C36.1177 12 20 28.1177 20 48C20 67.8823 36.1177 84 56 84Z" fill="url(#paint0_linear_636_33)"/>
    </g>
    <path d="M40 54.9783C40 52.9581 40 51.9495 40.4549 51.2077C40.7092 50.7929 41.058 50.4441 41.4728 50.1899C42.213 49.7349 43.2247 49.7349 45.2434 49.7349H46.9398C49.8483 49.7349 51.301 49.7349 52.2047 50.6387C53.1084 51.5424 53.1084 52.9951 53.1084 55.9036V57.6C53.1084 59.6202 53.1084 60.6288 52.6535 61.3706C52.3992 61.7854 52.0505 62.1342 51.6357 62.3884C50.8954 62.8434 49.8838 62.8434 47.8651 62.8434C44.8362 62.8434 43.3218 62.8434 42.2099 62.1617C41.5877 61.7804 41.0646 61.2572 40.6832 60.635C40 59.52 40 58.0071 40 54.9783ZM57.7349 37.2434C57.7349 35.2231 57.7349 34.2146 58.1899 33.4728C58.4441 33.058 58.7929 32.7092 59.2077 32.4549C59.948 32 60.9596 32 62.9783 32C66.0071 32 67.5215 32 68.635 32.6816C69.2572 33.063 69.7804 33.5862 70.1617 34.2084C70.8434 35.3234 70.8434 36.8378 70.8434 39.8651C70.8434 41.8853 70.8434 42.8939 70.3884 43.6357C70.1342 44.0505 69.7854 44.3992 69.3706 44.6535C68.6304 45.1084 67.6187 45.1084 65.6 45.1084H63.9036C60.9951 45.1084 59.5424 45.1084 58.6387 44.2047C57.7349 43.301 57.7349 41.8483 57.7349 38.9398V37.2434Z" stroke="white" stroke-width="1.78947"/>
    <path d="M62.3614 38.5542C62.3614 37.76 62.3614 37.3621 62.5619 37.0814C62.6318 36.9824 62.7178 36.8959 62.8164 36.8254C63.0971 36.6265 63.4949 36.6265 64.2892 36.6265C65.0834 36.6265 65.4812 36.6265 65.7619 36.8269C65.8609 36.8968 65.9475 36.9828 66.0179 37.0814C66.2169 37.3621 66.2169 37.76 66.2169 38.5542C66.2169 39.3484 66.2169 39.7463 66.0164 40.0269C65.9465 40.126 65.8605 40.2125 65.7619 40.2829C65.4812 40.4819 65.0834 40.4819 64.2892 40.4819C63.4949 40.4819 63.0971 40.4819 62.8164 40.2814C62.7174 40.2116 62.6308 40.1255 62.5604 40.0269C62.3614 39.7463 62.3614 39.3484 62.3614 38.5542ZM56.5783 62.8433C56.5783 63.1501 56.7002 63.4443 56.9171 63.6612C57.134 63.8781 57.4282 64 57.7349 64C58.0417 64 58.3359 63.8781 58.5528 63.6612C58.7697 63.4443 58.8916 63.1501 58.8916 62.8433H56.5783ZM66.2169 48.5783H63.1325V50.8915H66.2169V48.5783ZM56.5783 58.2168V62.8433H58.8916V58.2168H56.5783ZM63.1325 48.5783C62.0731 48.5783 61.1925 48.5783 60.4815 48.6492C59.7506 48.7232 59.0735 48.8852 58.4628 49.2938L59.749 51.2169C59.9156 51.1043 60.1685 51.0056 60.7159 50.9501C61.2819 50.8931 62.0268 50.8915 63.1325 50.8915V48.5783ZM58.8916 55.1325C58.8916 54.0252 58.8916 53.2819 58.9502 52.7159C59.0057 52.1684 59.1044 51.9155 59.217 51.749L57.2939 50.4628C56.8867 51.0735 56.7233 51.7505 56.6492 52.4815C56.5768 53.1924 56.5783 54.073 56.5783 55.1325H58.8916ZM58.4628 49.2938C58.0002 49.6023 57.6023 50.0002 57.2939 50.4628L59.217 51.749C59.3591 51.5396 59.5397 51.3591 59.749 51.2169L58.4628 49.2938ZM72 49.7349C72 49.4281 71.8781 49.134 71.6612 48.917C71.4443 48.7001 71.1501 48.5783 70.8434 48.5783C70.5366 48.5783 70.2424 48.7001 70.0255 48.917C69.8086 49.134 69.6867 49.4281 69.6867 49.7349H72ZM63.1325 64H66.2169V61.6867H63.1325V64ZM72 55.1325V49.7349H69.6867V55.1325H72ZM66.2169 64C66.9201 64 67.5046 64 67.9826 63.9691C68.4715 63.9352 68.9342 63.8642 69.3814 63.6776L68.4962 61.5402C68.3774 61.5896 68.197 61.6343 67.8253 61.6605C67.4444 61.6867 66.9509 61.6867 66.2169 61.6867V64ZM69.6867 58.2168C69.6867 58.9509 69.6867 59.4444 69.6605 59.8253C69.6343 60.197 69.5896 60.3774 69.5402 60.4962L71.6777 61.3814C71.8627 60.9341 71.9352 60.4715 71.9676 59.9826C72 59.5045 72 58.9185 72 58.2168H69.6867ZM69.3814 63.6776C69.8961 63.4647 70.3638 63.1509 70.7578 62.7571C71.1518 62.3634 71.4644 61.8959 71.6777 61.3814L69.5402 60.4962C69.4434 60.7302 69.3013 60.9429 69.1221 61.1221C68.943 61.3012 68.7303 61.4433 68.4962 61.5402L69.3814 63.6776Z" fill="white"/>
    <path d="M40 39.8651C40 36.8362 40 35.3218 40.6816 34.2099C41.063 33.5877 41.5862 33.0646 42.2084 32.6832C43.3234 32 44.8378 32 47.8651 32C49.8853 32 50.8939 32 51.6357 32.4549C52.0505 32.7092 52.3992 33.058 52.6535 33.4728C53.1084 34.213 53.1084 35.2247 53.1084 37.2434V38.9398C53.1084 41.8483 53.1084 43.301 52.2047 44.2047C51.301 45.1084 49.8483 45.1084 46.9398 45.1084H45.2434C43.2231 45.1084 42.2146 45.1084 41.4728 44.6535C41.058 44.3992 40.7092 44.0505 40.4549 43.6357C40 42.8954 40 41.8838 40 39.8651Z" stroke="white" stroke-width="1.78947"/>
    <path d="M44.6265 38.5542C44.6265 37.76 44.6265 37.3621 44.827 37.0814C44.8968 36.9824 44.9828 36.8959 45.0814 36.8254C45.3621 36.6265 45.76 36.6265 46.5542 36.6265C47.3484 36.6265 47.7463 36.6265 48.027 36.8269C48.126 36.8968 48.2125 36.9828 48.283 37.0814C48.4819 37.3621 48.4819 37.76 48.4819 38.5542C48.4819 39.3484 48.4819 39.7463 48.2814 40.0269C48.2116 40.126 48.1256 40.2125 48.027 40.2829C47.7463 40.4819 47.3484 40.4819 46.5542 40.4819C45.76 40.4819 45.3621 40.4819 45.0814 40.2814C44.9824 40.2116 44.8959 40.1255 44.8254 40.0269C44.6265 39.7463 44.6265 39.3484 44.6265 38.5542ZM44.6265 56.2891C44.6265 55.4949 44.6265 55.097 44.827 54.8163C44.8968 54.7173 44.9828 54.6308 45.0814 54.5603C45.3621 54.3614 45.76 54.3614 46.5542 54.3614C47.3484 54.3614 47.7463 54.3614 48.027 54.5619C48.126 54.6317 48.2125 54.7178 48.283 54.8163C48.4819 55.097 48.4819 55.4949 48.4819 56.2891C48.4819 57.0833 48.4819 57.4812 48.2814 57.7619C48.2116 57.8609 48.1256 57.9474 48.027 58.0179C47.7463 58.2168 47.3484 58.2168 46.5542 58.2168C45.76 58.2168 45.3621 58.2168 45.0814 58.0163C44.9824 57.9465 44.8959 57.8605 44.8254 57.7619C44.6265 57.4812 44.6265 57.0833 44.6265 56.2891ZM61.5904 56.2891C61.5904 55.2065 61.5904 54.6652 61.851 54.275C61.9632 54.1073 62.1073 53.9632 62.2751 53.8509C62.6652 53.5903 63.2065 53.5903 64.2891 53.5903C65.3717 53.5903 65.913 53.5903 66.3032 53.8509C66.471 53.9632 66.6151 54.1073 66.7273 54.275C66.9879 54.6652 66.9879 55.2065 66.9879 56.2891C66.9879 57.3717 66.9879 57.913 66.7273 58.3032C66.6151 58.4709 66.471 58.615 66.3032 58.7273C65.913 58.9879 65.3717 58.9879 64.2891 58.9879C63.2065 58.9879 62.6652 58.9879 62.2751 58.7273C62.1073 58.615 61.9632 58.4709 61.851 58.3032C61.5904 57.913 61.5904 57.3717 61.5904 56.2891Z" fill="white"/>
    <defs>
        <filter id="filter0_d_636_33" x="0" y="0" width="112" height="112" filterUnits="userSpaceOnUse" color-interpolation-filters="sRGB">
            <feFlood flood-opacity="0" result="BackgroundImageFix"/>
            <feColorMatrix in="SourceAlpha" type="matrix" values="0 0 0 0 0 0 0 0 0 0 0 0 0 0 0 0 0 0 127 0" result="hardAlpha"/>
            <feOffset dy="8"/>
            <feGaussianBlur stdDeviation="10"/>
            <feComposite in2="hardAlpha" operator="out"/>
            <feColorMatrix type="matrix" values="0 0 0 0 0.0941176 0 0 0 0 0.145098 0 0 0 0 0.298039 0 0 0 0.2 0"/>
            <feBlend mode="normal" in2="BackgroundImageFix" result="effect1_dropShadow_636_33"/>
            <feBlend mode="normal" in="SourceGraphic" in2="effect1_dropShadow_636_33" result="shape"/>
        </filter>
        <linearGradient id="paint0_linear_636_33" x1="38.5625" y1="-51.5625" x2="64.4375" y2="97.5" gradientUnits="userSpaceOnUse">
            <stop stop-color="#3857B2"/>
            <stop offset="0.768858" stop-color="#18254C"/>
        </linearGradient>
    </defs>
</svg>
