<svg width="138" height="101" viewBox="0 0 138 101" fill="none" xmlns="http://www.w3.org/2000/svg">
    <path d="M21.5619 82.966H18.8579V80.73H13.7359C13.1293 81.354 12.3666 81.8393 11.4479 82.186C10.5466 82.5153 9.53261 82.68 8.40594 82.68C7.41794 82.68 6.50794 82.55 5.67594 82.29C4.84394 82.0127 4.12461 81.6313 3.51794 81.146C2.92861 80.6433 2.46061 80.054 2.11394 79.378C1.78461 78.6847 1.61994 77.9133 1.61994 77.064C1.61994 76.2147 1.78461 75.452 2.11394 74.776C2.46061 74.0827 2.92861 73.4933 3.51794 73.008C4.12461 72.5053 4.84394 72.124 5.67594 71.864C6.50794 71.5867 7.41794 71.448 8.40594 71.448C9.54994 71.448 10.5813 71.63 11.4999 71.994C12.4186 72.3407 13.1813 72.826 13.7879 73.45H18.8579V71.656H21.5619V82.966ZM22.0819 94.458H4.14194V88.036H18.8579V86.372H4.11594V83.98H21.5619V90.376H6.84594V92.066H22.0819V94.458ZM11.3699 79.586C12.1153 78.9967 12.4879 78.156 12.4879 77.064C12.4879 75.9893 12.1153 75.1573 11.3699 74.568C10.6419 73.9787 9.65394 73.684 8.40594 73.684C7.15794 73.684 6.16127 73.9787 5.41594 74.568C4.68794 75.1573 4.32394 75.9893 4.32394 77.064C4.32394 78.156 4.68794 78.9967 5.41594 79.586C6.16127 80.158 7.15794 80.444 8.40594 80.444C9.65394 80.444 10.6419 80.158 11.3699 79.586ZM18.8579 78.364V75.816H15.0359C15.1399 76.2147 15.1919 76.6307 15.1919 77.064C15.1919 77.5147 15.1399 77.948 15.0359 78.364H18.8579ZM33.0519 94.354C32.2372 94.354 31.4832 94.2413 30.7899 94.016C30.1139 93.808 29.5246 93.496 29.0219 93.08C28.5366 92.6813 28.1552 92.196 27.8779 91.624C27.6006 91.052 27.4619 90.4107 27.4619 89.7C27.4619 88.9893 27.6006 88.348 27.8779 87.776C28.1552 87.204 28.5366 86.7187 29.0219 86.32C29.5246 85.904 30.1139 85.592 30.7899 85.384C31.4832 85.1587 32.2372 85.046 33.0519 85.046H40.4879C41.3026 85.046 42.0479 85.1587 42.7239 85.384C43.4172 85.592 44.0066 85.904 44.4919 86.32C44.9946 86.7187 45.3846 87.204 45.6619 87.776C45.9392 88.348 46.0779 88.9893 46.0779 89.7C46.0779 90.4107 45.9392 91.052 45.6619 91.624C45.3846 92.196 44.9946 92.6813 44.4919 93.08C44.0066 93.496 43.4172 93.808 42.7239 94.016C42.0479 94.2413 41.3026 94.354 40.4879 94.354H33.0519ZM38.6939 83.824C37.6712 83.148 36.6659 82.4287 35.6779 81.666C34.7072 80.886 33.7539 80.0973 32.8179 79.3C32.3672 79.664 31.8819 80.0627 31.3619 80.496C30.8419 80.912 30.3046 81.3367 29.7499 81.77C29.2126 82.2033 28.6666 82.628 28.1119 83.044C27.5572 83.46 27.0286 83.8413 26.5259 84.188L24.8619 82.238C25.9539 81.4753 26.9852 80.73 27.9559 80.002C28.9439 79.2567 29.8799 78.4767 30.7639 77.662C31.0586 77.402 31.2406 77.142 31.3099 76.882C31.3792 76.622 31.4139 76.3187 31.4139 75.972V74.646H26.0839V72.254H39.3699V74.646H34.1699V76.05C34.1699 76.3967 34.2046 76.6913 34.2739 76.934C34.3432 77.1767 34.5252 77.4367 34.8199 77.714C35.7039 78.5287 36.5619 79.2567 37.3939 79.898C38.2432 80.522 39.2052 81.198 40.2799 81.926L38.6939 83.824ZM40.3319 91.962C41.2332 91.962 41.9612 91.7713 42.5159 91.39C43.0879 91.0087 43.3739 90.4453 43.3739 89.7C43.3739 88.9547 43.0879 88.3913 42.5159 88.01C41.9612 87.6287 41.2332 87.438 40.3319 87.438H33.2079C32.3066 87.438 31.5699 87.6287 30.9979 88.01C30.4432 88.3913 30.1659 88.9547 30.1659 89.7C30.1659 90.4453 30.4432 91.0087 30.9979 91.39C31.5699 91.7713 32.3066 91.962 33.2079 91.962H40.3319ZM45.4799 84.318H42.7759V78.624H37.9659V76.284H42.7759V71.656H45.4799V84.318ZM60.9739 90.35H49.2479V87.958H50.9379V75.192H49.4559V72.8H60.6099V75.192H59.1279V87.958H60.9739V90.35ZM65.5759 93.73H62.8979V82.446H60.1419V80.002H62.8979V71.916H65.5759V93.73ZM70.4899 94.38H67.7859V71.656H70.4899V94.38ZM56.4499 87.958V75.192H53.6159V87.958H56.4499ZM87.1798 84.864C87.1798 85.8 87.0152 86.658 86.6858 87.438C86.3565 88.218 85.8972 88.894 85.3078 89.466C84.7358 90.0207 84.0425 90.454 83.2278 90.766C82.4132 91.078 81.5205 91.234 80.5498 91.234C79.5792 91.234 78.6865 91.078 77.8718 90.766C77.0572 90.454 76.3552 90.0207 75.7658 89.466C75.1765 88.894 74.7172 88.218 74.3878 87.438C74.0758 86.658 73.9198 85.8 73.9198 84.864V78.52C73.9198 77.584 74.0758 76.726 74.3878 75.946C74.7172 75.166 75.1765 74.4987 75.7658 73.944C76.3552 73.372 77.0572 72.93 77.8718 72.618C78.6865 72.306 79.5792 72.15 80.5498 72.15C81.5205 72.15 82.4132 72.306 83.2278 72.618C84.0425 72.93 84.7358 73.372 85.3078 73.944C85.8972 74.4987 86.3565 75.166 86.6858 75.946C87.0152 76.726 87.1798 77.584 87.1798 78.52V84.864ZM84.4758 78.572C84.4758 77.376 84.1205 76.4053 83.4098 75.66C82.7165 74.9147 81.7632 74.542 80.5498 74.542C79.3365 74.542 78.3745 74.9147 77.6638 75.66C76.9705 76.4053 76.6238 77.376 76.6238 78.572V84.812C76.6238 86.008 76.9705 86.9787 77.6638 87.724C78.3745 88.4693 79.3365 88.842 80.5498 88.842C81.7632 88.842 82.7165 88.4693 83.4098 87.724C84.1205 86.9787 84.4758 86.008 84.4758 84.812V78.572ZM93.4978 94.406H90.7938V71.656H93.4978V94.406Z" fill="url(#paint0_linear_178_1840)"/>
    <path d="M114.899 0.126996C119.189 6.49269 119.699 13.9778 117.121 20.2598L126.961 13.4972L134.169 29.1582C141.996 46.1666 134.389 65.6338 117.115 72.8475L117.117 72.8525C111.968 74.9882 106.535 75.7842 101.231 75.4046C104.589 73.8091 107.331 71.0337 108.742 67.3719C111.76 59.5411 107.552 50.6288 99.345 47.4659C91.1377 44.3032 82.0382 48.0874 79.0204 55.918C77.8178 59.0385 77.7634 62.3306 78.6513 65.3623C75.6881 62.504 73.1918 59.0989 71.3553 55.2173L71.3632 55.2131C63.5726 38.6889 70.5903 19.6756 87.0486 12.1486L87.0448 12.1419L114.899 0.126996Z" fill="url(#paint1_linear_178_1840)"/>
    <defs>
        <linearGradient id="paint0_linear_178_1840" x1="142.5" y1="52.9258" x2="5.99987" y2="94" gradientUnits="userSpaceOnUse">
            <stop stop-color="#122853"/>
            <stop offset="1" stop-color="white"/>
        </linearGradient>
        <linearGradient id="paint1_linear_178_1840" x1="90.3164" y1="53.3716" x2="134.05" y2="5.16341" gradientUnits="userSpaceOnUse">
            <stop stop-color="#004BBC"/>
            <stop offset="1" stop-color="#FFA4A6"/>
        </linearGradient>
    </defs>
</svg>
